{"title":"Aquarius.US.S01.720p.WEB-DL.DD5.1.H264-FGT","uid":11973082,"size":18389697583,"categoryP":"video","categoryS":"hd___tv_shows","magnet":"?xt=urn:btih:bea29ea84c5a87ed39a822404fe14e6f07384a14&amp;dn=Aquarius.US.S01.720p.WEB-DL.DD5.1.H264-FGT&amp;tr=udp%3A%2F%2Ftracker.openbittorrent.com%3A80&amp;tr=udp%3A%2F%2Fopen.demonii.com%3A1337&amp;tr=udp%3A%2F%2Ftracker.coppersurfer.tk%3A6969&amp;tr=udp%3A%2F%2Fexodus.desync.com%3A6969","seeders":1,"leechers":0,"uploader":"vickey1992","files":28,"time":1432910433,"description":"Plot:\nA gritty 1960s cop drama about a cop who goes undercover to track Charles Manson and the Manson Family before their infamous murder spree.\n\n\n\nAll Season 1 Episodes included :\n\n\nAquarius.US.S01E01.Everybodys.Been.Burned.720p.WEB-DL.DD5.1.H264-FGT\nAquarius.US.S01E02.The.Hunter.Gets.Captured.by.the.Game.720p.WEB-DL.DD5.1.H264-FGT\nAquarius.US.S01E03.Never.Say.Never.to.Always.720p.WEB-DL.DD5.1.H264-FGT\nAquarius.US.S01E04.Home.Is.Where.Youre.Happy.720p.WEB-DL.DD5.1.H264-FGT\nAquarius.US.S01E05.A.Change.Is.Gonna.Come.720p.WEB-DL.DD5.1.H264-FGT\nAquarius.US.S01E06.A.Whiter.Shade.of.Pale.720p.WEB-DL.DD5.1.H264-FGT\nAquarius.US.S01E07.Cease.to.Resist.720p.WEB-DL.DD5.1.H264-FGT\nAquarius.US.S01E08.Sick.City.720p.WEB-DL.DD5.1.H264-FGT\nAquarius.US.S01E09.Why.720p.WEB-DL.DD5.1.H264-FGT\nAquarius.US.S01E10.Back.in.the.U.S.A.720p.WEB-DL.DD5.1.H264-FGT\nAquarius.US.S01E11.Your.Mother.Should.Know.720p.WEB-DL.DD5.1.H264-FGT\nAquarius.US.S01E12.Please.Let.Me.Love.You.And.It.Wont.Be.Wrong.720p.WEB-DL.DD5.1.H264-FGT\nAquarius.US.S01E13.Old.Ego.Is.a.Too.Much.Thing.720p.WEB-DL.DD5.1.H264-FGT\n\n\nVideo\nID                                       : 1\nFormat                                   : AVC\nFormat/Info                              : Advanced Video Codec\nFormat profile                           : &lt;a class=&quot;__cf_email__&quot; href=&quot;/cdn-cgi/l/email-protection&quot; data-cfemail=&quot;f6be9f919eb6bac5d8c7&quot;&gt;[email&amp;#160;protected]&lt;/a&gt;&lt;script data-cfhash='f9e31' type=&quot;text/javascript&quot;&gt;\n/* &lt;![CDATA[ */!function(){try{var t=&quot;currentScript&quot;in document?document.currentScript:function(){for(var t=document.getElementsByTagName(&quot;script&quot;),e=t.length;e--;)if(t[e].getAttribute(&quot;data-cfhash&quot;))return t[e]}();if(t&amp;&amp;t.previousSibling){var e,r,n,i,c=t.previousSibling,a=c.getAttribute(&quot;data-cfemail&quot;);if(a){for(e=&quot;&quot;,r=parseInt(a.substr(0,2),16),n=2;a.length-n;n+=2)i=parseInt(a.substr(n,2),16)^r,e+=String.fromCharCode(i);e=document.createTextNode(e),c.parentNode.replaceChild(e,c)}t.parentNode.removeChild(t);}}catch(u){}}()/* ]]&gt; */&lt;/script&gt;\nFormat settings, CABAC                   : No\nFormat settings, ReFrames                : 2 frames\nCodec ID                                 : V_MPEG4/ISO/AVC\nDuration                                 : 42mn 57s\nBit rate                                 : 3 976 Kbps\nWidth                                    : 1 280 pixels\nHeight                                   : 716 pixels\nDisplay aspect ratio                     : 16:9\nFrame rate mode                          : Constant\nFrame rate                               : 23.976 fps\nColor space                              : YUV\nChroma subsampling                       : 4:2:0\nBit depth                                : 8 bits\nScan type                                : Progressive\nBits/(Pixel*Frame)                       : 0.181\nStream size                              : 1.19 GiB (89%)\nTitle                                    : Aquarius.US.S01E01.Everybodys.Been.Burned.720p.WEB-DL.DD5.1.H264-FGT\nLanguage                                 : English\nDefault                                  : Yes\nForced                                   : No\nColor primaries                          : BT.709\nTransfer characteristics                 : BT.709\nMatrix coefficients                      : BT.709\nColor range                              : Limited\n\nAudio\nID                                       : 2\nFormat                                   : AC-3\nFormat/Info                              : Audio Coding 3\nMode extension                           : CM (complete main)\nFormat settings, Endianness              : Big\nCodec ID                                 : A_AC3\nDuration                                 : 42mn 57s\nBit rate mode                            : Constant\nBit rate                                 : 384 Kbps\nChannel(s)                               : 6 channels\nChannel positions                        : Front: L C R, Side: L R, LFE\nSampling rate                            : 48.0 KHz\nBit depth                                : 16 bits\nCompression mode                         : Lossy\nStream size                              : 118 MiB (9%)\nTitle                                    : Aquarius.US.S01E01.Everybodys.Been.Burned.720p.WEB-DL.DD5.1.H264-FGT\nLanguage                                 : English\nDefault                                  : Yes\nForced                                   : No\n\nText\nID                                       : 3\nFormat                                   : UTF-8\nCodec ID                                 : S_TEXT/UTF8\nCodec ID/Info                            : UTF-8 Plain Text\nLanguage                                 : English\nDefault                                  : Yes\nForced                                   : No","torrent":{"xt":"urn:btih:bea29ea84c5a87ed39a822404fe14e6f07384a14","amp;dn":"Aquarius.US.S01.720p.WEB-DL.DD5.1.H264-FGT","amp;tr":["udp%3A%2F%2Ftracker.openbittorrent.com%3A80","udp%3A%2F%2Fopen.demonii.com%3A1337","udp%3A%2F%2Ftracker.coppersurfer.tk%3A6969","udp%3A%2F%2Fexodus.desync.com%3A6969"],"infoHash":"bea29ea84c5a87ed39a822404fe14e6f07384a14","infoHashBuffer":{"type":"Buffer","data":[190,162,158,168,76,90,135,237,57,168,34,64,79,225,78,111,7,56,74,20]},"announce":[],"urlList":[]}}